# MediaInfo Ouput

## .mts File

### General

ID                                       : 0 (0x0) <br>
Complete name                            : \*\*.mts <br>
Format                                   : BDAV <br>
Format/Info                              : Blu-ray Video <br>
File size                                : 594 MiB <br>
Duration                                 : 3 min 7 s <br>
Overall bit rate mode                    : Variable <br>
Overall bit rate                         : 26.5 Mb/s <br>
Maximum Overall bit rate                 : 28.0 Mb/s <br>
Recorded date                            : 2015-04-24 15:17:53+08:00 <br>
Writing application                      : Sony DSC-HX9V <br>

### Video

ID                                       : 4113 (0x1011) <br>
Menu ID                                  : 1 (0x1) <br>
Format                                   : AVC <br>
Format/Info                              : Advanced Video Codec <br>
Format profile                           : High@L4.2 <br>
Format settings                          : CABAC / 2 Ref Frames <br>
Format settings, CABAC                   : Yes <br>
Format settings, ReFrames                : 2 frames <br>
Format settings, GOP                     : M=1, N=15 <br>
Codec ID                                 : 27 <br>
Duration                                 : 3 min 7 s <br>
Bit rate mode                            : Variable <br>
Bit rate                                 : 25.2 Mb/s <br>
Maximum bit rate                         : 26.0 Mb/s <br>
Width                                    : 1 920 pixels <br>
Height                                   : 1 080 pixels <br>
Display aspect ratio                     : 16:9 <br>
Frame rate                               : 59.940 (60000/1001) FPS <br>
Color space                              : YUV <br>
Chroma subsampling                       : 4:2:0 <br>
Bit depth                                : 8 bits <br>
Scan type                                : Progressive <br>
Bits/(Pixel*Frame)                       : 0.203 <br>
Stream size                              : 564 MiB (95%) <br>
IrisFNumber                              : 3.300000 <br>

### Audio

ID                                       : 4352 (0x1100) <br>
Menu ID                                  : 1 (0x1) <br>
Format                                   : AC-3 <br>
Format/Info                              : Audio Coding 3 <br>
Commercial name                          : Dolby Digital <br>
Codec ID                                 : 129 <br>
Duration                                 : 3 min 7 s <br>
Bit rate mode                            : Constant <br>
Bit rate                                 : 256 kb/s <br>
Channel(s)                               : 2 channels <br>
Channel layout                           : L R <br>
Sampling rate                            : 48.0 kHz <br>
Frame rate                               : 31.250 FPS (1536 SPF) <br>
Bit depth                                : 16 bits <br>
Compression mode                         : Lossy <br>
Stream size                              : 5.73 MiB (1%) <br>
Service kind                             : Complete Main <br>

### Text

ID                                       : 4608 (0x1200) <br>
Menu ID                                  : 1 (0x1) <br>
Format                                   : PGS <br>
Codec ID                                 : 144 <br>
Duration                                 : 3 min 7 s <br>

## .mp4 File

### General

Complete name                : D:\DCIM\\*.mp4 <br>
Format                        : MPEG-4 <br>
Format profile                    : Base Media <br>
Codec ID                        : isom <br>
File size                        : 50.3 MiB <br>
Duration                        : 20s 821ms <br>
Overall bit rate                    : 20.3 Mbps <br>
Encoded date                    : UTC 2015-08-01 10:11:50 <br>
Tagged date                    : UTC 2015-08-01 10:11:50 <br>
﹛yz                            : +23.\*\*+113.\*\*/ <br>

### Video

ID                            : 1 <br>
Format                        : AVC <br>
Format/Info                    : Advanced Video Codec <br>
Format profile                    : Baseline@L4 <br>
Format settings, CABAC            : No <br>
Format settings, ReFrames        : 1 frame <br>
Format settings, GOP            : M=1, N=30 <br>
Codec ID                        : avc1 <br>
Codec ID/Info                    : Advanced Video Coding <br>
Duration                        : 20s 631ms <br>
Source duration                : 20s 647ms <br>
Bit rate                        : 20.0 Mbps <br>
Width                        : 1 920 pixels <br>
Height                        : 1 080 pixels <br>
Display aspect ratio                : 16:9 <br>
Rotation                        : 90° <br>
Frame rate mode                : Variable <br>
Frame rate                    : 29.970 fps <br>
Minimum frame rate            : 19.938 fps <br>
Maximum frame rate            : 30.110 fps <br>
Color space                    : YUV <br>
Chroma subsampling            : 4:2:0 <br>
Bit depth                        : 8 bits <br>
Scan type                        : Progressive <br>
Bits/(Pixel*Frame)                : 0.321 <br>
Stream size                    : 49.2 MiB (98%) <br>
Source stream size                : 49.2 MiB (98%) <br>
Title                            : VideoHandle <br>
Language                        : English <br>
Encoded date                    : UTC 2015-08-01 10:11:50 <br>
Tagged date                    : UTC 2015-08-01 10:11:50 <br>
mdhd_Duration                : 20631 <br>

### Audio

ID                            : 2 <br>
Format                        : AAC <br>
Format/Info                    : Advanced Audio Codec <br>
Format profile                    : LC <br>
Codec ID                        : 40 <br>
Duration                        : 20s 821ms <br>
Bit rate mode                    : Constant <br>
Bit rate                        : 156 Kbps <br>
Nominal bit rate                : 96.0 Kbps <br>
Channel(s)                    : 2 channels <br>
Channel positions                : Front: L R <br>
Sampling rate                    : 48.0 KHz <br>
Compression mode                : Lossy <br>
Stream size                    : 397 KiB (1%) <br>
Title                            : SoundHandle <br>
Language                        : English <br>
Encoded date                    : UTC 2015-08-01 10:11:50 <br>
Tagged date                    : UTC 2015-08-01 10:11:50 <br>
